<svg xmlns="http://www.w3.org/2000/svg" viewBox="0 0 494 452" width="494" height="452" font-family="'JetBrains Mono','DejaVu Sans Mono',monospace" font-size="15"><rect x="0.5" y="0.5" width="493" height="451" rx="11" fill="#0d1117" stroke="#262c36"/><text x="18" y="22" fill="#F2C12E" font-size="12" font-weight="700">octocat ~ $ github-fetch</text><text x="22" y="71" fill="#F2C12E" font-weight="700" xml:space="preserve">     .--.</text><text x="22" y="93" fill="#F2C12E" font-weight="700" xml:space="preserve">    |o_o |</text><text x="22" y="115" fill="#F2C12E" font-weight="700" xml:space="preserve">    |:_/ |</text><text x="22" y="137" fill="#F2C12E" font-weight="700" xml:space="preserve">   //   \ \</text><text x="22" y="159" fill="#F2C12E" font-weight="700" xml:space="preserve">  (|     | )</text><text x="22" y="181" fill="#F2C12E" font-weight="700" xml:space="preserve"> /'\_   _/`\</text><text x="22" y="203" fill="#F2C12E" font-weight="700" xml:space="preserve"> \___)=(___/</text><text x="157" y="71" fill="#F2C12E" font-weight="700" xml:space="preserve">octocat@github</text><text x="157" y="93" fill="#F2C12E" xml:space="preserve">──────────────</text><text x="157" y="115" xml:space="preserve"><tspan fill="#F2C12E" font-weight="700">OS:</tspan> <tspan fill="#c9d3df">Arch Linux x86_64</tspan></text><text x="157" y="137" xml:space="preserve"><tspan fill="#F2C12E" font-weight="700">Host:</tspan> <tspan fill="#c9d3df">github.com</tspan></text><text x="157" y="159" xml:space="preserve"><tspan fill="#F2C12E" font-weight="700">Kernel:</tspan> <tspan fill="#c9d3df">profile-readme 6.x</tspan></text><text x="157" y="181" xml:space="preserve"><tspan fill="#F2C12E" font-weight="700">Uptime:</tspan> <tspan fill="#c9d3df">committing since 2017</tspan></text><text x="157" y="203" xml:space="preserve"><tspan fill="#F2C12E" font-weight="700">Shell:</tspan> <tspan fill="#c9d3df">zsh 5.9</tspan></text><text x="157" y="225" xml:space="preserve"><tspan fill="#F2C12E" font-weight="700">Editor:</tspan> <tspan fill="#c9d3df">Neovim</tspan></text><text x="157" y="247" xml:space="preserve"><tspan fill="#F2C12E" font-weight="700">DE:</tspan> <tspan fill="#c9d3df">GitHub Dark</tspan></text><text x="157" y="269" xml:space="preserve"><tspan fill="#F2C12E" font-weight="700">Languages:</tspan> <tspan fill="#c9d3df">Python, Rust, TypeScript</tspan></text><text x="157" y="291" xml:space="preserve"><tspan fill="#F2C12E" font-weight="700">Repos:</tspan> <tspan fill="#c9d3df">42</tspan></text><text x="157" y="313" xml:space="preserve"><tspan fill="#F2C12E" font-weight="700">Stars:</tspan> <tspan fill="#c9d3df">1.2k</tspan></text><text x="157" y="335" xml:space="preserve"><tspan fill="#F2C12E" font-weight="700">Followers:</tspan> <tspan fill="#c9d3df">256</tspan></text><text x="157" y="357" xml:space="preserve"><tspan fill="#F2C12E" font-weight="700">Contributions:</tspan> <tspan fill="#c9d3df">1,337 this year</tspan></text><rect x="157" y="389" width="16" height="13" rx="2" fill="#2e3436"/><rect x="175" y="389" width="16" height="13" rx="2" fill="#cc0000"/><rect x="193" y="389" width="16" height="13" rx="2" fill="#4e9a06"/><rect x="211" y="389" width="16" height="13" rx="2" fill="#c4a000"/><rect x="229" y="389" width="16" height="13" rx="2" fill="#3465a4"/><rect x="247" y="389" width="16" height="13" rx="2" fill="#75507b"/><rect x="265" y="389" width="16" height="13" rx="2" fill="#06989a"/><rect x="283" y="389" width="16" height="13" rx="2" fill="#d3d7cf"/><rect x="157" y="411" width="16" height="13" rx="2" fill="#555753"/><rect x="175" y="411" width="16" height="13" rx="2" fill="#ef2929"/><rect x="193" y="411" width="16" height="13" rx="2" fill="#8ae234"/><rect x="211" y="411" width="16" height="13" rx="2" fill="#fce94f"/><rect x="229" y="411" width="16" height="13" rx="2" fill="#729fcf"/><rect x="247" y="411" width="16" height="13" rx="2" fill="#ad7fa8"/><rect x="265" y="411" width="16" height="13" rx="2" fill="#34e2e2"/><rect x="283" y="411" width="16" height="13" rx="2" fill="#eeeeec"/></svg>